<?xml version="1.0" standalone="no"?>
<!DOCTYPE svg PUBLIC "-//W3C//DTD SVG 20010904//EN"
 "http://www.w3.org/TR/2001/REC-SVG-20010904/DTD/svg10.dtd">
<svg version="1.0" xmlns="http://www.w3.org/2000/svg"
 width="414.000000pt" height="379.000000pt" viewBox="0 0 414.000000 379.000000"
 preserveAspectRatio="xMidYMid meet">
<metadata>
Created by potrace 1.16, written by Peter Selinger 2001-2019
</metadata>
<g transform="translate(0.000000,379.000000) scale(0.100000,-0.100000)"
fill="white" stroke="none">
<path d="M890 3175 l0 -115 315 0 315 0 2 -397 3 -398 28 83 c150 454 483 732
940 784 138 15 364 -11 480 -57 16 -7 17 2 17 104 l0 111 -1050 0 -1050 0 0
-115z"/>
<path d="M2390 3085 c-218 -49 -389 -144 -542 -303 -141 -146 -229 -312 -270
-512 -29 -137 -21 -357 16 -485 53 -180 140 -327 268 -456 221 -221 527 -330
835 -299 320 33 599 202 772 470 260 402 215 912 -114 1277 -109 122 -317 246
-490 294 -105 28 -375 36 -475 14z m451 -114 c171 -44 331 -136 449 -255 l64
-66 -402 0 -402 0 0 -65 0 -65 45 0 c38 0 45 3 45 20 0 18 7 20 76 20 57 0 73
-3 67 -12 -4 -7 -56 -81 -115 -165 -59 -84 -108 -154 -108 -157 0 -4 189 -6
420 -6 l420 0 0 65 0 65 -45 0 c-38 0 -45 -3 -45 -20 0 -18 -7 -20 -75 -20
-41 0 -75 3 -75 6 0 3 48 73 107 155 l107 150 18 -23 c39 -49 118 -227 138
-308 39 -164 24 -374 -38 -555 -59 -171 -183 -337 -328 -441 -148 -106 -351
-173 -534 -177 l-105 -2 -3 583 c-1 320 -5 582 -9 582 -4 0 -17 -10 -30 -22
-22 -20 -24 -21 -42 -4 -19 18 -22 17 -63 -2 -63 -30 -103 -35 -157 -22 -63
15 -118 61 -147 124 -43 93 -27 184 47 258 70 70 153 86 239 47 86 -39 90 -46
90 -183 0 -117 1 -121 27 -148 15 -15 29 -28 32 -28 3 0 5 158 3 351 l-4 352
129 -6 c79 -3 157 -13 204 -26z m174 -451 c38 0 45 3 45 20 0 18 7 20 76 20
l75 0 -48 -68 c-26 -37 -77 -109 -113 -159 l-65 -92 -3 55 -3 54 -44 0 c-38 0
-45 -3 -45 -20 0 -18 -7 -20 -76 -20 -57 0 -73 3 -68 13 4 6 55 79 113 161
l106 148 3 -56 3 -56 44 0z"/>
<path d="M2205 2571 c-45 -27 -65 -63 -65 -118 0 -111 108 -178 198 -123 l32
20 0 99 c0 96 -1 100 -26 120 -34 27 -98 28 -139 2z"/>
<path d="M2570 2065 l0 -75 45 0 c41 0 45 2 45 25 0 23 4 25 40 25 l40 0 0
-200 0 -200 45 0 45 0 0 200 0 200 34 0 c28 0 35 -4 38 -22 3 -20 9 -23 48
-23 l45 0 0 70 0 70 -212 3 -213 2 0 -75z"/>
<path d="M3135 2126 c-46 -20 -93 -63 -123 -115 -23 -39 -27 -57 -27 -121 0
-83 15 -122 69 -178 52 -56 101 -76 181 -76 82 0 134 22 185 80 46 53 63 99
63 174 0 102 -56 190 -148 231 -48 22 -155 25 -200 5z m183 -103 c15 -11 38
-35 50 -54 20 -28 23 -44 20 -92 -3 -37 -11 -67 -25 -85 -61 -82 -189 -86
-252 -6 -86 109 -3 273 132 261 27 -2 60 -13 75 -24z"/>
<path d="M1520 1181 l0 -674 -82 7 c-301 23 -509 151 -619 381 -51 106 -79
217 -86 343 l-6 102 -112 0 -112 0 -6 -76 c-7 -95 7 -236 33 -332 72 -263 292
-499 563 -606 130 -51 213 -68 372 -73 131 -5 162 -3 235 16 103 25 280 112
371 180 93 71 209 196 259 279 61 103 107 267 78 276 -7 2 -47 12 -88 21 -176
40 -330 131 -481 284 -141 143 -235 293 -290 461 l-28 85 -1 -674z"/>
</g>
</svg>
